<?xml version="1.0" standalone="no"?>
<!DOCTYPE svg PUBLIC "-//W3C//DTD SVG 20010904//EN"
 "http://www.w3.org/TR/2001/REC-SVG-20010904/DTD/svg10.dtd">
<svg version="1.0" xmlns="http://www.w3.org/2000/svg"
 width="441.000000pt" height="441.000000pt" viewBox="0 0 441.000000 441.000000"
 preserveAspectRatio="xMidYMid meet">
<metadata>
Created by potrace 1.14, written by Peter Selinger 2001-2017
</metadata>
<g transform="translate(0.000000,441.000000) scale(0.100000,-0.100000)"
fill="#000000" stroke="none">
<path d="M1155 4271 c7 -11 1 -13 -28 -8 -28 4 -39 2 -47 -11 -5 -9 -10 -12
-10 -6 0 7 -7 14 -14 17 -10 4 -13 1 -10 -7 3 -8 0 -17 -7 -22 -8 -4 -10 -3
-5 5 4 6 -7 4 -27 -5 -24 -12 -33 -22 -29 -32 3 -8 1 -13 -4 -10 -5 3 -18 -4
-29 -15 -18 -18 -18 -19 -2 -14 11 4 16 3 12 -3 -3 -6 -13 -10 -20 -10 -9 0
-12 -6 -9 -15 4 -8 1 -15 -5 -15 -6 0 -11 -5 -11 -11 0 -5 6 -7 13 -4 6 4 4 0
-5 -8 -12 -9 -14 -17 -7 -24 8 -8 7 -13 -2 -18 -8 -5 -10 -4 -5 3 11 18 0 14
-15 -5 -8 -9 -9 -14 -4 -11 7 4 11 -13 11 -47 0 -29 -5 -51 -9 -48 -5 3 -5 -2
0 -12 6 -10 8 -26 6 -36 -3 -11 1 -27 8 -36 12 -14 12 -15 1 -9 -11 7 -13 1
-9 -28 3 -23 1 -36 -7 -36 -7 0 -7 -3 -1 -8 15 -11 19 -46 4 -36 -8 4 -10 3
-5 -5 12 -18 15 -81 4 -81 -5 0 -6 -5 -2 -12 12 -19 13 -68 1 -61 -6 3 -7 1
-3 -6 12 -18 15 -81 4 -81 -5 0 -6 -5 -2 -11 12 -20 12 -79 0 -72 -6 4 -5 -1
3 -11 12 -14 12 -19 2 -26 -8 -5 -9 -10 -3 -14 6 -3 8 -15 5 -26 -3 -11 1 -28
8 -37 12 -14 12 -15 1 -9 -11 7 -13 1 -9 -28 3 -23 1 -36 -7 -36 -7 0 -7 -3
-1 -8 15 -11 18 -55 2 -46 -7 5 -7 1 2 -10 12 -14 12 -19 2 -26 -8 -5 -9 -10
-3 -14 6 -3 8 -15 5 -26 -3 -11 1 -28 8 -37 12 -14 12 -15 1 -9 -11 7 -13 1
-9 -28 3 -23 1 -36 -7 -36 -7 0 -7 -3 -1 -8 15 -11 18 -55 2 -46 -7 5 -7 1 2
-10 12 -14 12 -19 2 -26 -8 -5 -9 -10 -3 -14 6 -3 8 -15 5 -26 -3 -11 1 -28 8
-37 12 -14 12 -15 0 -9 -10 7 -12 3 -6 -14 5 -17 4 -21 -5 -15 -9 5 -11 4 -6
-4 12 -18 15 -81 4 -81 -5 0 -6 -5 -2 -12 12 -19 13 -68 1 -61 -6 3 -7 1 -3
-6 12 -18 15 -81 4 -81 -5 0 -6 -5 -2 -11 11 -18 10 -99 -1 -99 -7 0 -7 -3 0
-8 15 -11 18 -55 2 -46 -7 5 -7 1 2 -10 12 -14 12 -19 2 -26 -8 -5 -9 -10 -3
-14 6 -3 8 -15 5 -26 -3 -11 1 -28 8 -37 10 -12 10 -15 1 -9 -9 5 -12 0 -10
-21 1 -16 -2 -35 -7 -42 -5 -9 -4 -12 2 -8 13 8 11 -66 -2 -75 -7 -5 -7 -8 0
-8 6 0 11 -11 11 -25 1 -16 -2 -22 -10 -18 -6 4 -5 -1 3 -11 12 -14 12 -19 2
-26 -8 -5 -9 -10 -3 -14 6 -3 8 -15 5 -26 -3 -11 1 -28 8 -37 12 -14 12 -15 1
-9 -11 7 -13 1 -9 -28 3 -23 1 -36 -7 -36 -7 0 -7 -3 -1 -8 15 -11 18 -55 2
-46 -7 5 -7 1 2 -10 12 -14 12 -19 2 -26 -8 -5 -9 -10 -3 -14 6 -3 8 -15 5
-26 -3 -11 1 -28 8 -37 12 -14 12 -15 1 -9 -11 7 -13 1 -9 -28 3 -23 1 -36 -7
-36 -7 0 -7 -3 -1 -8 15 -11 18 -55 2 -46 -7 5 -6 0 3 -11 12 -14 12 -19 2
-23 -10 -3 -9 -7 4 -16 13 -10 14 -15 4 -21 -9 -6 -11 -4 -5 5 5 9 4 11 -4 6
-8 -6 -9 -12 -2 -20 6 -7 8 -16 4 -19 -3 -4 0 -7 7 -7 11 0 11 -3 2 -12 -8 -8
-6 -16 10 -30 18 -15 19 -21 8 -31 -10 -10 -11 -9 -5 2 5 10 4 12 -4 7 -6 -4
-9 -12 -5 -17 3 -5 10 -6 16 -3 7 5 9 1 5 -9 -3 -9 1 -18 10 -21 12 -5 13 -9
4 -20 -10 -11 -8 -16 10 -21 17 -6 19 -9 8 -16 -10 -6 -11 -9 -1 -9 6 0 12 -5
12 -11 0 -5 -5 -7 -12 -3 -7 4 -8 3 -4 -4 4 -7 14 -12 22 -12 8 0 14 -7 14
-16 0 -8 4 -13 9 -10 5 3 12 -1 15 -10 4 -10 2 -13 -7 -8 -8 6 -8 3 1 -8 8
-10 20 -14 30 -11 14 6 15 4 4 -9 -10 -13 -10 -17 3 -22 11 -4 14 -2 9 6 -4 7
-3 8 4 4 7 -4 12 -13 12 -21 0 -7 14 -16 30 -20 17 -4 30 -13 30 -21 0 -8 5
-14 11 -14 5 0 7 5 3 11 -4 7 7 4 24 -6 16 -10 29 -23 28 -29 -2 -6 -1 -8 1
-3 9 15 35 7 29 -9 -5 -14 -4 -15 8 -5 11 10 17 8 25 -6 8 -13 10 -14 11 -3 0
10 5 7 16 -8 13 -19 19 -20 37 -11 12 7 19 8 15 4 -4 -4 -1 -13 5 -20 9 -10
15 -10 26 -1 12 8 13 8 7 -1 -4 -8 -2 -13 4 -13 6 0 8 -5 4 -13 -5 -8 -2 -8 9
2 15 12 17 11 17 -3 0 -14 12 -21 24 -13 2 1 13 -6 25 -17 11 -10 27 -16 36
-13 9 4 15 1 15 -9 0 -8 4 -12 10 -9 5 3 10 1 10 -6 0 -8 4 -8 13 -1 9 8 19 4
37 -15 13 -14 26 -20 28 -14 2 7 8 7 17 -2 7 -7 10 -16 7 -22 -3 -5 3 -3 13 5
11 9 16 10 11 3 -4 -8 -2 -13 4 -13 6 0 8 -6 5 -12 -4 -7 1 -4 9 6 15 19 22
11 17 -17 -1 -5 4 -7 11 -4 7 2 25 -7 41 -21 15 -14 27 -21 27 -15 0 6 -7 13
-15 17 -8 3 -15 11 -15 18 0 9 3 9 8 2 4 -6 15 -13 25 -17 10 -4 16 -11 13
-16 -9 -14 31 -20 45 -7 9 8 10 8 5 -1 -4 -7 -2 -13 4 -13 6 0 8 -5 4 -12 -5
-8 -2 -8 10 1 15 12 17 12 14 0 -2 -9 4 -13 16 -11 10 2 15 -1 12 -6 -3 -6 1
-13 10 -16 10 -4 13 -2 9 7 -4 6 0 4 8 -5 8 -10 17 -15 20 -11 4 3 7 1 7 -6 0
-8 8 -11 20 -8 15 4 20 1 18 -10 -2 -9 5 -17 15 -18 9 -2 15 0 12 5 -7 11 22
7 32 -5 4 -4 2 -5 -6 0 -9 5 -12 4 -7 -3 4 -7 14 -12 22 -12 8 0 14 -5 14 -11
0 -5 4 -7 10 -4 6 3 10 1 10 -6 0 -9 3 -9 14 0 12 10 18 8 31 -12 10 -16 23
-23 40 -22 13 2 30 -4 37 -13 11 -15 11 -15 -3 -5 -12 10 -16 10 -16 0 0 -9
13 -13 38 -12 27 1 36 -2 32 -12 -3 -7 2 -13 12 -13 10 0 13 -4 9 -13 -5 -8
-2 -8 9 2 12 9 17 10 17 2 0 -7 5 -9 10 -6 6 3 10 -2 10 -12 0 -15 2 -16 10
-3 9 13 10 13 11 0 1 -8 1 -19 0 -23 -1 -5 3 -6 9 -2 6 3 7 12 4 18 -5 9 -4 9
6 0 7 -6 19 -9 28 -6 10 4 13 2 8 -5 -4 -7 -1 -12 9 -12 9 0 13 -4 10 -10 -3
-5 -1 -10 4 -10 6 0 11 6 12 13 0 6 5 2 11 -11 6 -12 15 -22 20 -22 5 0 7 4 4
8 -3 5 1 9 9 9 8 0 12 -8 10 -20 -4 -16 -2 -17 12 -5 9 7 14 8 10 2 -4 -7 0
-15 9 -18 10 -4 13 -2 9 7 -4 6 0 4 8 -5 8 -10 17 -15 20 -11 4 3 7 -2 8 -13
0 -18 1 -18 9 1 l9 20 0 -20 c1 -15 3 -17 10 -6 7 10 12 8 24 -10 9 -12 13
-27 10 -32 -3 -6 -1 -7 6 -3 6 4 9 11 6 16 -3 5 8 5 24 0 16 -4 32 -6 35 -2 3
3 6 -4 6 -16 0 -12 5 -22 11 -22 5 0 7 6 3 13 -6 8 -3 8 9 -1 9 -8 22 -10 29
-6 10 6 9 3 -1 -9 -12 -15 -11 -17 4 -17 10 0 28 -8 39 -17 20 -17 20 -17 6 1
-14 18 -14 19 6 8 12 -6 25 -8 30 -4 5 4 3 0 -4 -10 -15 -18 -7 -25 26 -22 12
0 22 -3 22 -8 0 -5 8 -8 18 -6 9 2 16 -2 15 -9 -1 -6 4 -14 12 -17 8 -3 15 -1
15 5 0 6 5 7 10 4 6 -4 8 -10 5 -15 -3 -5 7 -7 22 -5 16 2 22 2 16 -1 -7 -3
-13 -9 -13 -14 0 -9 19 -8 36 3 7 4 11 0 10 -10 -1 -11 9 -19 30 -23 38 -8 56
-19 50 -29 -3 -4 1 -8 9 -8 8 0 12 4 9 9 -3 4 2 5 10 2 9 -3 13 -11 10 -16 -4
-6 2 -5 14 1 13 7 23 7 27 1 3 -5 13 -6 22 -3 11 4 14 3 9 -6 -6 -9 -2 -9 14
1 19 11 23 11 27 0 4 -10 9 -8 19 5 12 15 13 15 8 1 -4 -12 -1 -16 13 -14 10
2 21 -2 25 -8 5 -8 8 -7 8 2 0 7 5 10 12 6 6 -4 8 -3 4 4 -3 6 -15 9 -26 7
-11 -2 -20 0 -20 5 0 5 13 8 30 6 27 -3 29 -1 26 20 -6 30 2 31 14 2 l9 -23 0
23 c1 13 5 20 11 17 6 -3 10 -1 10 4 0 6 -5 11 -12 11 -6 0 -8 3 -5 6 4 4 14
1 24 -7 16 -13 16 -11 -1 16 -10 17 -15 27 -11 23 5 -4 14 -3 22 4 10 8 17 7
29 -8 14 -18 15 -18 5 3 -8 16 -8 23 2 27 6 3 1 4 -13 1 -14 -3 -19 -2 -12 1
6 3 12 12 12 21 0 12 2 12 16 -1 8 -9 21 -16 27 -15 8 0 8 2 -1 6 -6 2 -9 10
-6 15 4 6 2 8 -3 5 -12 -8 -22 12 -16 31 3 6 10 9 16 6 8 -5 8 -2 0 7 -15 16
-17 43 -3 34 6 -3 10 -1 10 4 0 6 -5 11 -11 11 -5 0 -7 5 -4 10 4 6 11 7 17 4
7 -5 8 -2 4 5 -5 7 -15 10 -23 6 -13 -4 -14 -3 -3 10 7 8 9 15 5 15 -4 0 -1 8
6 17 8 9 9 14 4 11 -6 -4 -12 3 -12 15 -2 15 0 18 6 9 6 -10 10 -9 13 6 5 16
2 20 -14 17 -20 -4 -20 -4 -2 17 11 12 13 18 5 13 -11 -6 -13 -4 -8 9 4 10 2
26 -3 37 -6 11 -7 18 -3 17 4 -2 8 2 8 7 0 6 -4 9 -10 7 -5 -1 -1 5 9 13 18
14 15 20 -7 16 -5 -1 -5 3 -2 9 4 6 13 9 21 6 7 -3 16 0 20 6 4 6 3 8 -2 5 -6
-3 -16 -1 -24 4 -13 7 -13 10 -1 18 11 7 11 9 0 13 -8 3 -10 10 -4 24 11 25
12 37 6 49 -10 18 -11 46 -3 41 5 -3 9 1 9 9 0 8 -3 12 -7 10 -4 -2 -7 2 -7
10 0 8 4 12 8 9 4 -2 11 1 15 7 4 7 3 9 -4 5 -17 -10 -25 13 -10 31 7 9 8 14
2 10 -7 -4 -11 6 -12 29 -1 25 2 33 11 28 7 -4 3 3 -8 16 -14 16 -16 24 -8 27
9 3 9 12 3 29 -6 15 -6 23 -1 19 5 -3 12 -1 16 5 3 5 2 10 -4 10 -5 0 -8 20
-7 45 1 24 0 42 -4 40 -4 -2 -7 2 -7 10 0 8 4 12 9 9 10 -6 10 -6 -1 34 -6 18
-6 30 -3 28 4 -3 8 15 8 39 0 24 -3 42 -6 40 -4 -2 -7 2 -7 10 0 8 3 12 7 10
4 -2 5 34 3 81 -2 66 0 84 9 78 10 -6 9 -3 0 9 -8 9 -11 25 -7 38 4 12 3 19
-2 16 -5 -4 -10 0 -10 8 0 8 3 12 7 10 4 -2 5 34 3 81 -2 66 0 84 9 78 10 -6
9 -3 0 9 -8 9 -11 25 -7 38 4 12 3 19 -2 16 -5 -4 -10 0 -10 8 0 8 4 12 9 9
10 -6 6 25 -5 44 -5 6 -4 12 0 12 11 0 10 50 0 68 -5 6 -4 12 0 12 11 0 10 50
0 68 -5 6 -4 12 0 12 11 0 10 50 0 68 -5 6 -4 12 1 12 9 0 7 51 -3 78 -3 7 -1
11 3 8 4 -2 8 15 8 39 0 24 -3 42 -6 40 -4 -2 -7 2 -7 10 0 8 4 12 8 10 8 -6
2 103 -8 118 -3 6 -1 7 6 3 9 -6 10 0 5 20 -6 21 -4 25 7 19 12 -8 12 -6 0 8
-7 9 -17 15 -20 12 -12 -7 -9 29 3 44 8 11 8 15 -1 18 -7 2 -10 10 -7 17 3 7
-2 19 -11 26 -8 7 -15 21 -15 32 0 10 -4 16 -10 13 -6 -3 -7 1 -4 9 4 10 1 16
-7 16 -11 0 -11 3 1 10 13 9 13 10 0 11 -8 1 -19 1 -24 0 -5 -1 -6 5 -3 14 4
8 2 15 -3 15 -6 0 -10 6 -10 13 0 7 -11 21 -25 31 -13 10 -22 22 -20 27 3 4
-4 6 -15 4 -11 -2 -18 0 -15 5 7 11 -24 42 -35 35 -4 -3 -10 5 -13 17 -5 16
-9 19 -19 11 -8 -7 -20 -7 -33 -2 -17 8 -16 9 5 5 24 -5 24 -4 6 9 -10 8 -22
12 -26 10 -5 -3 -11 3 -14 12 -6 15 -8 15 -16 3 -9 -13 -10 -13 -10 0 0 12 -2
13 -9 1 -7 -11 -10 -9 -16 8 -4 14 -15 21 -30 21 -13 0 -27 5 -30 10 -4 6 -11
8 -16 5 -5 -4 -9 -2 -9 4 0 5 6 11 13 14 6 2 -1 5 -18 5 -54 2 -63 5 -58 18 3
9 -2 12 -16 9 -12 -2 -21 1 -21 7 0 6 -9 8 -21 5 -17 -5 -18 -3 -7 11 10 12
10 14 1 8 -8 -4 -13 -2 -13 6 0 9 -3 9 -10 -2 -7 -11 -10 -11 -10 -2 0 7 -6
12 -12 11 -20 -3 -49 12 -42 22 4 8 -8 11 -32 8 -3 0 -14 10 -25 22 -12 15
-19 17 -19 8 0 -11 -2 -12 -9 -1 -4 8 -11 13 -15 13 -3 -1 -16 -1 -28 -1 -19
0 -20 2 -8 10 12 8 11 10 -7 10 -12 0 -24 6 -26 13 -4 9 -6 8 -6 -2 -1 -10 -7
-7 -20 8 -14 16 -21 18 -24 9 -4 -9 -6 -7 -6 4 -1 11 -7 15 -20 11 -10 -3 -22
0 -25 6 -5 7 0 9 11 5 10 -3 7 1 -7 9 -19 12 -28 13 -39 4 -12 -9 -13 -9 -7 1
6 11 -4 16 -26 13 -4 0 -10 8 -13 19 -5 15 -11 18 -22 12 -10 -6 -23 -2 -41
15 -14 13 -32 21 -39 19 -7 -3 -13 -1 -13 5 0 6 -7 9 -15 6 -8 -4 -17 -1 -21
5 -5 7 -2 8 6 3 9 -6 11 -4 6 4 -5 7 -14 10 -22 7 -8 -3 -14 0 -14 7 0 8 -4 6
-10 -3 -8 -13 -10 -13 -10 2 0 9 -10 20 -21 23 -16 5 -18 9 -9 15 7 4 9 13 6
19 -4 6 -13 8 -19 4 -7 -4 -6 0 2 10 7 9 10 17 5 17 -5 0 -2 5 6 10 13 9 13
11 0 20 -13 9 -13 10 0 10 13 0 13 1 0 10 -13 9 -13 10 0 10 13 0 13 1 0 10
-13 9 -13 10 0 10 13 0 13 2 1 9 -13 8 -13 12 0 27 13 16 12 17 -6 10 -16 -6
-18 -5 -7 5 14 15 16 33 2 24 -6 -4 -6 3 0 21 10 25 9 26 -7 13 -11 -9 -14
-10 -9 -2 15 27 14 52 -5 72 -13 13 -15 21 -7 21 7 0 2 7 -11 16 -15 11 -21
23 -18 36 4 13 1 18 -7 15 -7 -3 -13 4 -14 16 0 12 -6 23 -12 25 -5 2 -10 10
-10 17 0 8 -9 17 -20 20 -11 3 -20 15 -20 26 0 10 -5 19 -11 19 -5 0 -7 -5 -3
-12 5 -7 3 -8 -5 -4 -7 5 -10 15 -7 23 3 8 1 11 -4 8 -6 -3 -10 -2 -10 4 0 5
-11 8 -25 6 -19 -2 -23 1 -15 10 13 15 3 25 -27 25 -13 0 -23 5 -23 10 0 6 -7
10 -15 10 -8 0 -15 4 -15 9 0 5 -7 12 -16 15 -9 4 -13 2 -8 -5 4 -7 1 -10 -7
-7 -8 3 -13 11 -11 18 2 10 -1 10 -14 -1 -12 -9 -15 -9 -10 -1 4 7 2 12 -4 12
-6 0 -8 6 -4 13 5 9 4 9 -6 0 -11 -10 -17 -8 -32 9 -10 12 -18 16 -18 10 0 -7
-5 -12 -11 -12 -6 0 -9 7 -6 14 4 11 1 13 -10 9 -10 -4 -14 -2 -10 4 5 7 0 9
-13 6 -14 -4 -20 -1 -18 7 2 7 -5 14 -15 15 -9 2 -15 -1 -11 -6 3 -5 10 -6 16
-3 7 5 8 2 3 -6 -6 -10 -12 -9 -25 8 -14 16 -20 18 -30 9 -10 -9 -11 -9 -6 0
4 7 -2 14 -14 18 -11 4 -18 10 -16 14 3 4 -1 8 -9 8 -8 0 -11 -5 -8 -11 6 -11
-44 30 -60 49 -5 6 -7 3 -3 -7 3 -12 1 -15 -10 -11 -7 3 -14 9 -14 14 0 5 -3
8 -7 8 -5 -1 -14 -1 -22 0 -11 1 -11 4 0 18 13 15 12 15 -10 3 -21 -11 -26
-10 -36 4 -7 9 -19 16 -28 16 -8 0 -18 7 -21 15 -4 13 -10 14 -26 5 -17 -9
-19 -8 -13 7 6 16 5 17 -12 3 -11 -9 -16 -10 -11 -2 4 7 2 12 -4 12 -6 0 -8 5
-4 13 6 9 5 9 -8 0 -18 -15 -29 -7 -21 15 3 10 1 13 -4 7 -10 -12 -45 -16 -38
-5 3 5 1 11 -5 15 -5 3 -10 1 -10 -5 0 -6 -5 -8 -12 -3 -7 4 -23 6 -36 4 -13
-1 -30 3 -39 11 -14 11 -15 11 -8 -1z m1060 -641 c3 -5 -1 -10 -10 -10 -9 0
-13 5 -10 10 3 6 8 10 10 10 2 0 7 -4 10 -10z m1235 -1059 c0 -6 -4 -12 -8
-15 -5 -3 -9 1 -9 9 0 8 4 15 9 15 4 0 8 -4 8 -9z m27 -1806 c0 -8 -4 -12 -9
-9 -5 3 -6 10 -3 15 9 13 12 11 12 -6z"/>
<path d="M2180 3706 c0 -2 7 -7 16 -10 8 -3 12 -2 9 4 -6 10 -25 14 -25 6z"/>
<path d="M3460 2510 c0 -5 5 -10 11 -10 5 0 7 5 4 10 -3 6 -8 10 -11 10 -2 0
-4 -4 -4 -10z"/>
<path d="M3535 881 c-3 -5 -2 -12 3 -15 5 -3 9 1 9 9 0 17 -3 19 -12 6z"/>
<path d="M3555 830 c3 -5 8 -10 11 -10 2 0 4 5 4 10 0 6 -5 10 -11 10 -5 0 -7
-4 -4 -10z"/>
<path d="M3576 792 c-3 -5 1 -9 9 -9 8 0 12 4 9 9 -3 4 -7 8 -9 8 -2 0 -6 -4
-9 -8z"/>
<path d="M3620 770 c-9 -6 -10 -10 -3 -10 6 0 15 5 18 10 8 12 4 12 -15 0z"/>
<path d="M3486 728 c3 -5 10 -6 15 -3 13 9 11 12 -6 12 -8 0 -12 -4 -9 -9z"/>
<path d="M3614 706 c1 -8 5 -18 8 -22 4 -3 5 1 4 10 -1 8 -5 18 -8 22 -4 3 -5
-1 -4 -10z"/>
<path d="M3570 630 c0 -5 5 -10 11 -10 5 0 7 5 4 10 -3 6 -8 10 -11 10 -2 0
-4 -4 -4 -10z"/>
<path d="M3615 629 c-3 -4 2 -6 10 -5 21 3 28 13 10 13 -9 0 -18 -4 -20 -8z"/>
<path d="M3496 603 c-6 -14 -5 -15 5 -6 7 7 10 15 7 18 -3 3 -9 -2 -12 -12z"/>
<path d="M3675 601 c-3 -5 -2 -12 3 -15 5 -3 9 1 9 9 0 17 -3 19 -12 6z"/>
<path d="M3540 476 c0 -2 8 -10 18 -17 15 -13 16 -12 3 4 -13 16 -21 21 -21
13z"/>
<path d="M3496 443 c-6 -14 -5 -15 5 -6 7 7 10 15 7 18 -3 3 -9 -2 -12 -12z"/>
<path d="M3576 443 c-6 -14 -5 -15 5 -6 7 7 10 15 7 18 -3 3 -9 -2 -12 -12z"/>
<path d="M3630 450 c0 -5 5 -10 11 -10 5 0 7 5 4 10 -3 6 -8 10 -11 10 -2 0
-4 -4 -4 -10z"/>
<path d="M3535 420 c-4 -6 -10 -8 -15 -5 -4 3 -7 -3 -5 -12 1 -10 -5 -27 -14
-38 -16 -20 -16 -20 7 -1 12 11 20 21 17 24 -3 3 2 14 12 24 9 10 13 18 10 18
-3 0 -9 -5 -12 -10z"/>
<path d="M3580 415 c0 -2 6 -8 13 -14 10 -8 14 -7 14 2 0 8 -6 14 -14 14 -7 0
-13 -1 -13 -2z"/>
<path d="M3546 392 c-3 -5 1 -9 9 -9 8 0 15 4 15 9 0 4 -4 8 -9 8 -6 0 -12 -4
-15 -8z"/>
<path d="M3590 376 c0 -2 7 -7 16 -10 8 -3 12 -2 9 4 -6 10 -25 14 -25 6z"/>
<path d="M2670 366 c0 -2 7 -7 16 -10 8 -3 12 -2 9 4 -6 10 -25 14 -25 6z"/>
<path d="M3516 351 c-3 -4 4 -17 17 -27 22 -19 22 -19 4 2 -9 11 -14 24 -10
27 3 4 4 7 0 7 -3 0 -8 -4 -11 -9z"/>
<path d="M3551 343 c7 -12 15 -20 18 -17 3 2 -3 12 -13 22 -17 16 -18 16 -5
-5z"/>
<path d="M3715 349 c-3 -4 2 -6 10 -5 21 3 28 13 10 13 -9 0 -18 -4 -20 -8z"/>
<path d="M3673 305 c0 -8 4 -12 9 -9 5 3 6 10 3 15 -9 13 -12 11 -12 -6z"/>
<path d="M3536 283 c-6 -14 -5 -15 5 -6 7 7 10 15 7 18 -3 3 -9 -2 -12 -12z"/>
<path d="M3595 261 c-3 -5 -2 -12 3 -15 5 -3 9 1 9 9 0 17 -3 19 -12 6z"/>
<path d="M3516 250 c8 -7 54 -7 54 0 0 4 -13 7 -29 6 -16 0 -27 -3 -25 -6z"/>
<path d="M3425 231 c-3 -6 5 -15 17 -21 21 -10 21 -10 6 3 -10 8 -15 17 -11
20 3 4 4 7 0 7 -3 0 -8 -4 -12 -9z"/>
<path d="M3576 225 c-9 -26 -7 -32 5 -12 6 10 9 21 6 23 -2 3 -7 -2 -11 -11z"/>
<path d="M3675 221 c-3 -5 -2 -12 3 -15 5 -3 9 1 9 9 0 17 -3 19 -12 6z"/>
<path d="M3490 210 c0 -5 5 -10 10 -10 6 0 10 5 10 10 0 6 -4 10 -10 10 -5 0
-10 -4 -10 -10z"/>
<path d="M3594 208 c-4 -7 -4 -10 1 -6 4 4 15 2 24 -5 14 -11 14 -10 2 6 -16
20 -18 21 -27 5z"/>
<path d="M3799 203 c-13 -17 -13 -17 6 -3 11 8 22 16 24 17 2 2 0 3 -6 3 -6 0
-17 -8 -24 -17z"/>
<path d="M3515 190 c-3 -5 -3 -10 1 -10 4 0 0 -6 -11 -13 -14 -11 -15 -16 -5
-22 9 -6 11 -4 5 5 -6 10 -4 12 11 6 10 -4 15 -4 11 0 -4 4 1 13 11 21 16 12
16 13 -2 6 -13 -4 -17 -3 -12 5 4 7 5 12 2 12 -3 0 -8 -4 -11 -10z"/>
<path d="M3576 177 c3 -10 9 -15 12 -12 3 3 0 11 -7 18 -10 9 -11 8 -5 -6z"/>
<path d="M3656 177 c3 -10 9 -15 12 -12 3 3 0 11 -7 18 -10 9 -11 8 -5 -6z"/>
<path d="M3616 163 c-6 -14 -5 -15 5 -6 7 7 10 15 7 18 -3 3 -9 -2 -12 -12z"/>
<path d="M3454 152 c3 -6 -2 -13 -11 -15 -16 -4 -16 -5 -1 -6 21 -1 32 15 17
25 -7 4 -9 3 -5 -4z"/>
<path d="M3412 126 c1 -14 5 -23 9 -20 7 4 0 44 -7 44 -2 0 -3 -11 -2 -24z"/>
<path d="M3571 141 c-8 -5 -9 -11 -3 -15 5 -3 12 1 16 9 6 17 6 18 -13 6z"/>
<path d="M3375 130 c-3 -5 -1 -10 4 -10 6 0 11 5 11 10 0 6 -2 10 -4 10 -3 0
-8 -4 -11 -10z"/>
<path d="M3526 132 c-3 -5 1 -9 9 -9 8 0 15 4 15 9 0 4 -4 8 -9 8 -6 0 -12 -4
-15 -8z"/>
</g>
</svg>
